<?xml version="1.0" encoding="UTF-8" standalone="no"?>
<svg
   xmlns:dc="http://purl.org/dc/elements/1.1/"
   xmlns:cc="http://creativecommons.org/ns#"
   xmlns:rdf="http://www.w3.org/1999/02/22-rdf-syntax-ns#"
   xmlns:svg="http://www.w3.org/2000/svg"
   xmlns="http://www.w3.org/2000/svg"
   xmlns:xlink="http://www.w3.org/1999/xlink"
   xmlns:sodipodi="http://sodipodi.sourceforge.net/DTD/sodipodi-0.dtd"
   xmlns:inkscape="http://www.inkscape.org/namespaces/inkscape"
   version="1.1"
   id="HQ"
   x="0px"
   y="0px"
   viewBox="0 0 400 400"
   style="enable-background:new 0 0 400 400;"
   xml:space="preserve"
   sodipodi:docname="Armore-circular.svg"
   inkscape:version="1.0.2 (e86c8708, 2021-01-15)"><metadata
   id="metadata73"><rdf:RDF><cc:Work
       rdf:about=""><dc:format>image/svg+xml</dc:format><dc:type
         rdf:resource="http://purl.org/dc/dcmitype/StillImage" /></cc:Work></rdf:RDF></metadata><defs
   id="defs71"><linearGradient
   inkscape:collect="always"
   id="linearGradient989"><stop
     style="stop-color:#810000;stop-opacity:1"
     offset="0"
     id="stop985" /><stop
     style="stop-color:#800000;stop-opacity:0;"
     offset="1"
     id="stop987" /></linearGradient><linearGradient
   id="linearGradient969"
   gradientUnits="userSpaceOnUse"
   x1="200"
   y1="30.769199"
   x2="200"
   y2="330.45819"
   spreadMethod="pad">
			<stop
   offset="0"
   style="stop-color:#50C3FF"
   id="stop965" />
			<stop
   offset="1"
   style="stop-color:#0a84ff;stop-opacity:1"
   id="stop967" />
		</linearGradient>
	
	<linearGradient
   id="SVGID_2_"
   gradientUnits="userSpaceOnUse"
   x1="391.70737"
   y1="317.49924"
   x2="111.6066"
   y2="153.9853">
		<stop
   offset="0"
   style="stop-color:#000000;stop-opacity:0"
   id="stop13" />
		<stop
   offset="1"
   style="stop-color:#000000;stop-opacity:0.3"
   id="stop15" />
	</linearGradient>
	
	<linearGradient
   id="SVGID_3_"
   gradientUnits="userSpaceOnUse"
   x1="200"
   y1="275.4718"
   x2="200"
   y2="37.7023">
		<stop
   offset="0"
   style="stop-color:#FFFFFF"
   id="stop20" />
		<stop
   offset="1"
   style="stop-color:#F48FA7"
   id="stop22" />
	</linearGradient>
	
	<linearGradient
   id="SVGID_4_"
   gradientUnits="userSpaceOnUse"
   x1="200"
   y1="91.818"
   x2="200"
   y2="299.687">
		<stop
   offset="0"
   style="stop-color:#FFFFFF"
   id="stop27" />
		<stop
   offset="1"
   style="stop-color:#F48FA7"
   id="stop29" />
	</linearGradient>
	
	
	

		<linearGradient
   id="SVGID_5_"
   gradientUnits="userSpaceOnUse"
   x1="200"
   y1="263.2944"
   x2="200"
   y2="94.3116">
			<stop
   offset="0"
   style="stop-color:#FFFFFF"
   id="stop34" />
			<stop
   offset="1"
   style="stop-color:#F48FA7"
   id="stop36" />
		</linearGradient>
		
		<linearGradient
   id="SVGID_6_"
   gradientUnits="userSpaceOnUse"
   x1="200.00191"
   y1="138.9373"
   x2="200.00191"
   y2="263.103">
			<stop
   offset="0"
   style="stop-color:#FFFFFF"
   id="stop41" />
			<stop
   offset="1"
   style="stop-color:#F48FA7"
   id="stop43" />
		</linearGradient>
		
	<linearGradient
   id="linearGradient962"
   gradientUnits="userSpaceOnUse"
   x1="200"
   y1="30.769199"
   x2="200"
   y2="330.45819"><stop
     offset="0"
     style="stop-color:#50C3FF"
     id="stop4-3" /><stop
     offset="1"
     style="stop-color:#0A84FF"
     id="stop6-6" /></linearGradient><linearGradient
   id="linearGradient962-7"
   gradientUnits="userSpaceOnUse"
   x1="200"
   y1="30.769199"
   x2="200"
   y2="330.45819"><stop
     offset="0"
     style="stop-color:#50C3FF"
     id="stop4-3-8" /><stop
     offset="1"
     style="stop-color:#0A84FF"
     id="stop6-6-4" /></linearGradient><linearGradient
   id="linearGradient962-7-4"
   gradientUnits="userSpaceOnUse"
   x1="200"
   y1="30.769199"
   x2="200"
   y2="330.45819"><stop
     offset="0"
     style="stop-color:#50C3FF"
     id="stop4-3-8-3" /><stop
     offset="1"
     style="stop-color:#0A84FF"
     id="stop6-6-4-0" /></linearGradient><linearGradient
   inkscape:collect="always"
   xlink:href="#SVGID_2_"
   id="linearGradient914"
   gradientUnits="userSpaceOnUse"
   x1="391.70737"
   y1="317.49924"
   x2="111.6066"
   y2="153.9853" /><linearGradient
   inkscape:collect="always"
   xlink:href="#SVGID_3_"
   id="linearGradient916"
   gradientUnits="userSpaceOnUse"
   x1="200"
   y1="275.4718"
   x2="200"
   y2="37.7023" /><linearGradient
   inkscape:collect="always"
   xlink:href="#SVGID_4_"
   id="linearGradient918"
   gradientUnits="userSpaceOnUse"
   x1="200"
   y1="91.818"
   x2="200"
   y2="299.687" /><linearGradient
   inkscape:collect="always"
   xlink:href="#SVGID_5_"
   id="linearGradient920"
   gradientUnits="userSpaceOnUse"
   x1="200"
   y1="263.2944"
   x2="200"
   y2="94.3116" /><linearGradient
   id="linearGradient962-9"
   gradientUnits="userSpaceOnUse"
   x1="200"
   y1="30.769199"
   x2="200"
   y2="330.45819"><stop
     offset="0"
     style="stop-color:#50C3FF"
     id="stop4-3-2" /><stop
     offset="1"
     style="stop-color:#0A84FF"
     id="stop6-6-0" /></linearGradient><linearGradient
   id="linearGradient962-9-9"
   gradientUnits="userSpaceOnUse"
   x1="200"
   y1="30.769199"
   x2="200"
   y2="330.45819"><stop
     offset="0"
     style="stop-color:#50C3FF"
     id="stop4-3-2-0" /><stop
     offset="1"
     style="stop-color:#0A84FF"
     id="stop6-6-0-9" /></linearGradient>
		<linearGradient
   id="SVGID_1_"
   gradientUnits="userSpaceOnUse"
   x1="200"
   y1="30.769199"
   x2="200"
   y2="330.45819"
   spreadMethod="pad">
			<stop
   offset="0"
   style="stop-color:#50C3FF"
   id="stop4" />
			<stop
   offset="1"
   style="stop-color:#0A84FF"
   id="stop6" />
		</linearGradient>
		
	<linearGradient
   inkscape:collect="always"
   xlink:href="#SVGID_1_"
   id="linearGradient909"
   x1="96.86618"
   y1="52.892281"
   x2="105.95767"
   y2="308.04129"
   gradientUnits="userSpaceOnUse"
   gradientTransform="matrix(1.5778949,0,0,1.0381895,-210.20858,-9.8783593)" /><clipPath
   clipPathUnits="userSpaceOnUse"
   id="clipPath86"><ellipse
     style="fill:#ff0000;stroke-width:10"
     id="ellipse88"
     cx="199.7"
     cy="199.75"
     rx="177.2"
     ry="176.75" /></clipPath><clipPath
   clipPathUnits="userSpaceOnUse"
   id="clipPath90"><ellipse
     style="fill:#ff0000;stroke-width:10"
     id="ellipse92"
     cx="200.8454"
     cy="197.57581"
     rx="177.2"
     ry="176.75" /></clipPath><clipPath
   clipPathUnits="userSpaceOnUse"
   id="clipPath94"><ellipse
     style="fill:#ff0000;stroke-width:10"
     id="ellipse96"
     cx="199.7"
     cy="199.75"
     rx="177.2"
     ry="176.75" /></clipPath><clipPath
   clipPathUnits="userSpaceOnUse"
   id="clipPath98"><ellipse
     style="fill:#ff0000;stroke-width:10"
     id="ellipse100"
     cx="199.7"
     cy="199.75"
     rx="177.2"
     ry="176.75" /></clipPath><clipPath
   clipPathUnits="userSpaceOnUse"
   id="clipPath102"><ellipse
     style="fill:#ff0000;stroke-width:10"
     id="ellipse104"
     cx="199.7"
     cy="199.75"
     rx="177.2"
     ry="176.75" /></clipPath><clipPath
   clipPathUnits="userSpaceOnUse"
   id="clipPath106"><ellipse
     style="fill:#ff0000;stroke-width:10"
     id="ellipse108"
     cx="199.7"
     cy="199.75"
     rx="177.2"
     ry="176.75" /></clipPath><clipPath
   clipPathUnits="userSpaceOnUse"
   id="clipPath110"><ellipse
     style="fill:#ff0000;stroke-width:10"
     id="ellipse112"
     cx="199.7"
     cy="199.75"
     rx="177.2"
     ry="176.75" /></clipPath><clipPath
   clipPathUnits="userSpaceOnUse"
   id="clipPath94-0"><ellipse
     style="fill:#ff0000;stroke-width:10"
     id="ellipse96-2"
     cx="199.7"
     cy="199.75"
     rx="177.2"
     ry="176.75" /></clipPath><linearGradient
   inkscape:collect="always"
   xlink:href="#linearGradient989"
   id="linearGradient991"
   x1="204.39999"
   y1="366.85001"
   x2="182.60001"
   y2="153.85001"
   gradientUnits="userSpaceOnUse" /><clipPath
   clipPathUnits="userSpaceOnUse"
   id="clipPath99"><ellipse
     style="fill:#ff0000;stroke-width:9.99294"
     id="ellipse101"
     cx="199.95"
     cy="199.75"
     rx="176.95"
     ry="176.75" /></clipPath></defs><sodipodi:namedview
   pagecolor="#ffffff"
   bordercolor="#666666"
   borderopacity="1"
   objecttolerance="10"
   gridtolerance="10"
   guidetolerance="10"
   inkscape:pageopacity="0"
   inkscape:pageshadow="2"
   inkscape:window-width="1920"
   inkscape:window-height="942"
   id="namedview69"
   showgrid="false"
   inkscape:zoom="2"
   inkscape:cx="133.89917"
   inkscape:cy="195.47821"
   inkscape:window-x="0"
   inkscape:window-y="25"
   inkscape:window-maximized="1"
   inkscape:current-layer="layer3"
   inkscape:document-rotation="0"
   inkscape:lockguides="true"
   showguides="true"
   inkscape:guide-bbox="true"><sodipodi:guide
     position="23,266"
     orientation="1,0"
     id="guide937"
     inkscape:locked="true" /><sodipodi:guide
     position="88.5,377"
     orientation="0,-1"
     id="guide939"
     inkscape:locked="true" /><sodipodi:guide
     position="128.5,23.5"
     orientation="0,-1"
     id="guide941"
     inkscape:locked="true" /><sodipodi:guide
     position="376.9,230.9"
     orientation="1,0"
     id="guide943"
     inkscape:locked="true" /><sodipodi:guide
     position="53,377"
     orientation="0,-1"
     id="guide74"
     inkscape:locked="true" /><sodipodi:guide
     position="22.5,238"
     orientation="1,0"
     id="guide78"
     inkscape:locked="true" /><sodipodi:guide
     position="376.5,201.5"
     orientation="1,0"
     id="guide80"
     inkscape:locked="true" /><sodipodi:guide
     position="260.5,24"
     orientation="0,-1"
     id="guide82"
     inkscape:locked="true" /></sodipodi:namedview>
<style
   type="text/css"
   id="style2">
	.st0{fill:url(#SVGID_1_);}
	.st1{fill:url(#SVGID_2_);}
	.st2{fill:url(#SVGID_3_);}
	.st3{fill:url(#SVGID_4_);}
	.st4{fill:url(#SVGID_5_);}
	.st5{fill:url(#SVGID_6_);}
	.st6{fill:#FFFFFF;}
	.st7{fill:url(#SVGID_7_);}
	.st8{fill:url(#SVGID_8_);}
	.st9{fill:url(#SVGID_9_);}
	.st10{fill:url(#SVGID_10_);}
	.st11{fill:url(#SVGID_11_);}
	.st12{fill:url(#SVGID_12_);}
	.st13{fill:url(#SVGID_13_);}
	.st14{fill:url(#SVGID_14_);}
	.st15{fill:url(#SVGID_15_);}
	.st16{fill:url(#SVGID_16_);}
</style>

<g
   inkscape:groupmode="layer"
   id="layer3"
   inkscape:label="Layer 3"
   style="display:inline"><rect
     style="fill:url(#linearGradient909);fill-opacity:1;stroke-width:232.11;stroke-linecap:round;stroke-linejoin:round;paint-order:markers stroke fill"
     id="rect889"
     width="558.41699"
     height="367"
     x="-173.91699"
     y="14"
     ry="0"
     clip-path="url(#clipPath99)"
     inkscape:export-xdpi="277.77338"
     inkscape:export-ydpi="277.77338" /><path
     class="st1"
     d="m 200,67 v 266 l 76,43.9 h 18.5 c 45.5,0 82.4,-36.9 82.4,-82.4 V 169.1 Z"
     id="path18"
     style="fill:url(#linearGradient914)"
     clip-path="url(#clipPath110)" /><path
     class="st2"
     d="m 84.8,133.5 v 68.9 c 0,39.7 21.2,76.4 55.6,96.2 L 200,333 259.6,298.6 c 34.4,-19.8 55.6,-56.5 55.6,-96.2 V 133.5 L 200,67 Z"
     id="path25"
     style="fill:url(#linearGradient916)"
     clip-path="url(#clipPath106)" /><path
     class="st3"
     d="m 95.2,139.5 v 62.6 c 0,36.1 19.3,69.5 50.5,87.5 L 200,321 254.2,289.7 c 31.3,-18.1 50.5,-51.4 50.5,-87.5 V 139.6 L 200,79 Z"
     id="path32"
     style="fill:url(#linearGradient918)"
     clip-path="url(#clipPath102)" /><path
     class="st4"
     d="m 123.8,217.1 c -9.8,-9.8 -15.2,-22.8 -15.2,-36.7 0,-13.9 5.4,-26.9 15.2,-36.7 9.8,-9.8 22.8,-15.2 36.7,-15.2 13.9,0 26.9,5.4 36.7,15.2 l 2.8,2.8 2.8,-2.8 c 9.8,-9.8 22.8,-15.2 36.7,-15.2 13.9,0 26.9,5.4 36.7,15.2 20.2,20.2 20.2,53.2 0,73.4 L 200,293.3 Z"
     id="path39"
     style="fill:url(#linearGradient920)"
     clip-path="url(#clipPath98)" /><path
     class="st5"
     d="m 130.7,210.2 c -7.9,-8 -12.3,-18.5 -12.3,-29.8 0,-11.2 4.4,-21.8 12.3,-29.8 8,-7.9 18.5,-12.3 29.8,-12.3 11.3,0 21.8,4.4 29.8,12.3 l 9.7,9.7 9.7,-9.7 c 8,-8 18.5,-12.3 29.8,-12.3 11.3,0 21.8,4.4 29.8,12.3 16.4,16.4 16.4,43.1 0,59.5 L 200,279.4 Z"
     id="path46"
     style="fill:#ff0000;fill-opacity:1"
     clip-path="url(#clipPath94)" /><path
     class="st5"
     d="m 130.7,210.2 c -7.9,-8 -12.3,-18.5 -12.3,-29.8 0,-11.2 4.4,-21.8 12.3,-29.8 8,-7.9 18.5,-12.3 29.8,-12.3 11.3,0 21.8,4.4 29.8,12.3 l 9.7,9.7 9.7,-9.7 c 8,-8 18.5,-12.3 29.8,-12.3 11.3,0 21.8,4.4 29.8,12.3 16.4,16.4 16.4,43.1 0,59.5 L 200,279.4 Z"
     id="path46-4"
     style="display:inline;fill:url(#linearGradient991);fill-opacity:1"
     clip-path="url(#clipPath94-0)" /><g
     id="g46"
     transform="translate(-1.1453953,2.17419)"
     clip-path="url(#clipPath90)"><rect
       x="181.2"
       y="173.60001"
       transform="rotate(90,194.0263,186.3666)"
       class="st6"
       width="25.6"
       height="25.6"
       id="rect42" /><path
       class="st6"
       d="m 177.7,203.6 c -18.2,-18.2 -6.9,-47.6 -6.9,-47.6 -15.5,13.6 -26.1,43.2 -2.7,66.6 23.4,23.4 48.6,21.1 48.6,21.1 v -26.5 c -7.5,0 -26.7,-1.3 -39,-13.6 z"
       id="path44" /></g><ellipse
     style="fill:#ff0000;stroke-width:10"
     id="path76"
     cx="0.057500001"
     cy="71"
     rx="1.7763568e-15"
     ry="1"
     clip-path="url(#clipPath86)" /></g></svg>
