<?xml version="1.0" encoding="UTF-8" standalone="no"?>
<!-- Created with Inkscape (http://www.inkscape.org/) -->

<svg
   xmlns:dc="http://purl.org/dc/elements/1.1/"
   xmlns:cc="http://creativecommons.org/ns#"
   xmlns:rdf="http://www.w3.org/1999/02/22-rdf-syntax-ns#"
   xmlns:svg="http://www.w3.org/2000/svg"
   xmlns="http://www.w3.org/2000/svg"
   xmlns:sodipodi="http://sodipodi.sourceforge.net/DTD/sodipodi-0.dtd"
   xmlns:inkscape="http://www.inkscape.org/namespaces/inkscape"
   width="1024"
   height="1024"
   viewBox="0 0 270.93333 270.93334"
   version="1.1"
   id="svg8"
   inkscape:version="0.92.5 (2060ec1f9f, 2020-04-08)"
   sodipodi:docname="logo_circular.svg"
   inkscape:export-filename="/home/darioalessandro/Documents/2019/RescueLink/design/logo/logo_circular.png"
   inkscape:export-xdpi="150"
   inkscape:export-ydpi="150">
  <defs
     id="defs2">
    <clipPath
       id="clipPath18"
       clipPathUnits="userSpaceOnUse">
      <path
         inkscape:connector-curvature="0"
         id="path16"
         d="M 0,612 H 792 V 0 H 0 Z" />
    </clipPath>
  </defs>
  <sodipodi:namedview
     id="base"
     pagecolor="#ffffff"
     bordercolor="#666666"
     borderopacity="1.0"
     inkscape:pageopacity="0.0"
     inkscape:pageshadow="2"
     inkscape:zoom="0.7"
     inkscape:cx="350.17283"
     inkscape:cy="535.54606"
     inkscape:document-units="mm"
     inkscape:current-layer="layer1"
     showgrid="false"
     units="px"
     inkscape:window-width="1920"
     inkscape:window-height="1043"
     inkscape:window-x="1920"
     inkscape:window-y="0"
     inkscape:window-maximized="1" />
  <metadata
     id="metadata5">
    <rdf:RDF>
      <cc:Work
         rdf:about="">
        <dc:format>image/svg+xml</dc:format>
        <dc:type
           rdf:resource="http://purl.org/dc/dcmitype/StillImage" />
        <dc:title></dc:title>
      </cc:Work>
    </rdf:RDF>
  </metadata>
  <g
     inkscape:label="Layer 1"
     inkscape:groupmode="layer"
     id="layer1"
     transform="translate(0,-26.06665)">
    <circle
       style="opacity:1;fill:#ececec;fill-opacity:1;stroke:none;stroke-width:2;stroke-linecap:square;stroke-linejoin:miter;stroke-miterlimit:4;stroke-dasharray:none;stroke-opacity:1;paint-order:normal"
       id="path859"
       cx="135.46666"
       cy="161.30653"
       r="135.46666" />
    <g
       transform="matrix(0.40135293,0,0,-0.40135293,-23.353161,283.55355)"
       inkscape:label="armore_logo_main_01"
       id="g10">
      <g
         id="g12">
        <g
           clip-path="url(#clipPath18)"
           id="g14">
          <g
             transform="translate(391.6372,574.4536)"
             id="g20">
            <path
               inkscape:connector-curvature="0"
               id="path22"
               style="fill:#1b1b1b;fill-opacity:1;fill-rule:nonzero;stroke:none"
               d="m 0,0 c -40.661,0 -76.03,-11.246 -76.03,-11.246 2.825,-12.415 6.684,-28.972 8.821,-36.447 3.641,-12.744 12.417,-21.267 30.495,-19.116 19.116,2.276 36.714,2.276 36.714,2.276 0,0 17.598,0 36.714,-2.276 18.078,-2.151 26.854,6.372 30.495,19.116 2.137,7.475 5.996,24.032 8.821,36.447 C 76.03,-11.246 40.661,0 0,0" />
          </g>
          <g
             transform="translate(580.5361,328.9575)"
             id="g24">
            <path
               inkscape:connector-curvature="0"
               id="path26"
               style="fill:#377abe;fill-opacity:1;fill-rule:nonzero;stroke:none"
               d="m 0,0 c -4.139,9.364 -8.171,17.312 -12.918,26.969 0,0 0.605,26.097 0.605,44.909 0,18.812 -4.247,34.591 -30.339,46.121 l 6.386,74.683 c -20.266,17.834 -42.927,29.658 -64.461,37.502 -2.849,-12.5 -6.569,-28.398 -8.71,-35.881 -5.285,-18.503 -18.568,-28.693 -37.402,-28.693 -2.197,0 -4.503,0.142 -6.851,0.422 -18.085,2.153 -35.043,2.187 -35.206,2.187 -0.168,0 -17.127,-0.034 -35.21,-2.187 -2.351,-0.28 -4.657,-0.422 -6.853,-0.422 -18.834,0 -32.117,10.19 -37.403,28.69 -2.139,7.485 -5.859,23.381 -8.71,35.879 -21.534,-7.842 -44.196,-19.662 -64.463,-37.497 l 6.387,-74.683 c -26.093,-11.53 -30.339,-27.309 -30.339,-46.121 0,-18.812 0.604,-44.909 0.604,-44.909 -4.747,-9.657 -8.779,-17.605 -12.918,-26.969 -4.29,-9.706 -10.186,-35.69 12.812,-52.668 32.397,-23.918 57.071,-48.834 72.294,-76.553 31.995,-58.266 30.367,-116.897 30.367,-116.897 l -14.563,-22.455 21.241,-20.027 47.565,-2.795 c 7.479,-0.477 4.318,9.699 0.979,17.967 -4.683,11.599 -116.511,297.972 -119.544,306.467 -3.037,8.495 -4.519,15.153 -1.821,18.889 2.959,4.096 8.794,5.921 20.932,0.459 11.53,-5.188 87.749,-38.741 98.993,-43.243 10.613,-4.249 12.971,-4.628 19.645,-4.628 6.676,0 9.032,0.379 19.646,4.628 11.244,4.502 87.464,38.055 98.993,43.243 12.138,5.462 17.974,3.637 20.932,-0.459 2.699,-3.736 1.216,-10.394 -1.82,-18.889 -3.034,-8.495 -114.862,-294.868 -119.545,-306.467 -3.339,-8.268 -6.5,-18.444 0.98,-17.967 l 47.565,2.795 21.241,20.027 -14.564,22.455 c 0,0 -1.628,58.631 30.368,116.897 15.222,27.719 39.896,52.635 72.293,76.553 C 10.187,-35.69 4.291,-9.706 0,0" />
          </g>
          <g
             transform="translate(556.0479,509.7925)"
             id="g28">
            <path
               inkscape:connector-curvature="0"
               id="path30"
               style="fill:#1b1b1b;fill-opacity:1;fill-rule:nonzero;stroke:none"
               d="m 0,0 -4.729,-55.319 c 25.913,-14.671 27.323,-33.952 27.323,-52.424 0,-14.909 -0.573,-34.79 -0.733,-42.328 0.378,-0.765 3.27,-2.479 3.639,-3.226 0.013,-0.028 0.027,-0.053 0.039,-0.079 0,0 5.152,76.825 5.152,78.1 C 30.691,-47.555 19.404,-21.737 0,0" />
          </g>
          <g
             transform="translate(553.0566,221.5059)"
             id="g32">
            <path
               inkscape:connector-curvature="0"
               id="path34"
               style="fill:#1b1b1b;fill-opacity:1;fill-rule:nonzero;stroke:none"
               d="M 0,0 C 2.08,8.324 15.237,24.762 18.574,41.777 -12.153,18.57 -33.47,-4.258 -46.455,-27.904 -72.052,-74.516 -74.934,-122.047 -75.229,-134.926 l 11.827,-18.236 c 29.444,23.369 30.547,24.18 42.702,32.701 C 3.375,-103.582 11.017,-75.23 5.766,-53.1 1.519,-35.197 -3.237,-12.953 0,0" />
          </g>
          <g
             transform="translate(227.2261,509.7925)"
             id="g36">
            <path
               inkscape:connector-curvature="0"
               id="path38"
               style="fill:#1b1b1b;fill-opacity:1;fill-rule:nonzero;stroke:none"
               d="m 0,0 4.729,-55.319 c -25.913,-14.671 -27.323,-33.952 -27.323,-52.424 0,-14.909 0.573,-34.79 0.733,-42.328 -0.379,-0.765 -3.27,-2.479 -3.64,-3.226 -0.012,-0.028 -0.026,-0.053 -0.039,-0.079 0,0 -5.152,76.825 -5.152,78.1 0,27.721 11.288,53.539 30.692,75.276" />
          </g>
          <g
             transform="translate(230.2163,221.5059)"
             id="g40">
            <path
               inkscape:connector-curvature="0"
               id="path42"
               style="fill:#1b1b1b;fill-opacity:1;fill-rule:nonzero;stroke:none"
               d="M 0,0 C -2.08,8.324 -15.237,24.762 -18.574,41.777 12.154,18.57 33.47,-4.258 46.456,-27.904 72.052,-74.516 74.935,-122.047 75.229,-134.926 l -11.826,-18.236 c -29.445,23.369 -30.547,24.18 -42.702,32.701 C -3.375,-103.582 -11.016,-75.23 -5.766,-53.1 -1.518,-35.197 3.238,-12.953 0,0" />
          </g>
        </g>
      </g>
    </g>
  </g>
</svg>
